<svg viewBox="0 0 26 26" fill="currentColor"
    xmlns="http://www.w3.org/2000/svg">
    <path d="M13.0001 2.16666C7.01636 2.16666 2.16675 7.01627 2.16675 13C2.16675 18.9837 7.01636 23.8333 13.0001 23.8333C18.9838 23.8333 23.8334 18.9837 23.8334 13C23.8334 7.01627 18.9838 2.16666 13.0001 2.16666ZM13.0001 4.33332C17.7778 4.33332 21.6667 8.22232 21.6667 13C21.6667 13.5078 21.616 14.0072 21.5313 14.4896C21.2647 14.4303 20.8712 14.3584 20.4141 14.3542C20.0756 14.3499 19.6524 14.4049 19.297 14.4557C19.4197 14.0791 19.5001 13.6644 19.5001 13.237C19.5001 12.196 18.9923 11.2269 18.1798 10.4271C18.4041 9.59341 18.6241 8.16308 18.0444 7.58332C16.3305 7.58332 15.3826 8.8063 15.336 8.86978C14.807 8.74283 14.2612 8.66666 13.6772 8.66666C12.9281 8.66666 12.213 8.80207 11.5444 9.0052L11.7475 8.83593C11.7475 8.83593 10.7953 7.51561 9.03914 7.51561C8.42554 8.13345 8.70483 9.69921 8.93758 10.4948C8.10815 11.2861 7.58342 12.2213 7.58342 13.237C7.58342 13.5924 7.66805 13.931 7.75269 14.2526C7.45223 14.2187 6.3689 14.1172 5.92456 14.1172C5.53101 14.1172 4.92163 14.2103 4.43498 14.3203C4.36727 13.8887 4.33341 13.4486 4.33341 13C4.33341 8.22232 8.22241 4.33332 13.0001 4.33332ZM5.92456 14.388C6.35197 14.388 7.65112 14.5404 7.82039 14.5573C7.84155 14.6165 7.86271 14.6715 7.8881 14.7266C7.42261 14.6842 6.52124 14.6208 5.92456 14.6927C5.52677 14.7392 5.01896 14.8831 4.57039 14.9974C4.53654 14.862 4.49422 14.7308 4.46883 14.5911C4.94279 14.4896 5.56486 14.388 5.92456 14.388ZM20.4141 14.625C20.8458 14.6292 21.2393 14.7012 21.4975 14.7604C21.4848 14.8323 21.4467 14.8916 21.4298 14.9635C21.1547 14.9001 20.7019 14.807 20.1772 14.7943C19.9233 14.79 19.517 14.8027 19.1615 14.8281C19.1785 14.7943 19.1827 14.7604 19.1954 14.7266C19.5636 14.6758 20.0333 14.6208 20.4141 14.625ZM6.60164 14.9297C7.21102 14.9339 7.78231 14.9762 8.02352 14.9974C8.59058 16.0553 9.73739 16.8382 11.5105 17.1641C11.0746 17.4053 10.6853 17.7438 10.3933 18.1458C10.1394 18.167 9.8728 18.1797 9.61467 18.1797C8.86141 18.1797 8.39168 17.5068 7.98967 16.9271C7.58342 16.3473 7.08407 16.2838 6.80477 16.25C6.52124 16.2161 6.42391 16.3769 6.56779 16.487C7.39299 17.1217 7.68921 17.875 8.02352 18.5521C8.32398 19.1614 8.95451 19.5 9.64852 19.5H9.78394C9.76278 19.6185 9.75008 19.7285 9.75008 19.8385V21.0234C7.2491 20.012 5.34481 17.875 4.6381 15.2344C5.08244 15.1243 5.58179 15.0101 5.95841 14.9635C6.13192 14.9424 6.35197 14.9254 6.60164 14.9297ZM20.1772 15.0651C20.6638 15.0778 21.0955 15.1709 21.3621 15.2344C20.7654 17.4772 19.2927 19.3434 17.3334 20.4818V19.8385C17.3334 18.916 16.6056 17.7311 15.573 17.1641C17.2869 16.8509 18.4041 16.1019 18.9923 15.0989C19.4028 15.0693 19.8852 15.0566 20.1772 15.0651ZM13.5417 19.5C13.838 19.5 14.0834 19.7454 14.0834 20.0417V21.5989C13.7279 21.6455 13.3682 21.6667 13.0001 21.6667V20.0417C13.0001 19.7454 13.2455 19.5 13.5417 19.5ZM11.3751 20.5833C11.6713 20.5833 11.9167 20.8288 11.9167 21.125V21.5989C11.5528 21.5524 11.1847 21.4847 10.8334 21.3958V21.125C10.8334 20.8288 11.0789 20.5833 11.3751 20.5833ZM15.7084 20.5833C15.9708 20.5833 16.1993 20.7738 16.2501 21.0234C15.8988 21.1673 15.5391 21.2985 15.1667 21.3958V21.125C15.1667 20.8288 15.4122 20.5833 15.7084 20.5833Z" />
</svg>
