<svg viewBox="0 0 26 26" fill="currentColor"
    xmlns="http://www.w3.org/2000/svg">
    <path d="M8.66667 3.25C5.67558 3.25 3.25 5.67558 3.25 8.66667V17.3333C3.25 20.3244 5.67558 22.75 8.66667 22.75H17.3333C20.3244 22.75 22.75 20.3244 22.75 17.3333V8.66667C22.75 5.67558 20.3244 3.25 17.3333 3.25H8.66667ZM19.5 5.41667C20.098 5.41667 20.5833 5.902 20.5833 6.5C20.5833 7.098 20.098 7.58333 19.5 7.58333C18.902 7.58333 18.4167 7.098 18.4167 6.5C18.4167 5.902 18.902 5.41667 19.5 5.41667ZM13 7.58333C15.9911 7.58333 18.4167 10.0089 18.4167 13C18.4167 15.9911 15.9911 18.4167 13 18.4167C10.0089 18.4167 7.58333 15.9911 7.58333 13C7.58333 10.0089 10.0089 7.58333 13 7.58333ZM13 9.75C12.138 9.75 11.3114 10.0924 10.7019 10.7019C10.0924 11.3114 9.75 12.138 9.75 13C9.75 13.862 10.0924 14.6886 10.7019 15.2981C11.3114 15.9076 12.138 16.25 13 16.25C13.862 16.25 14.6886 15.9076 15.2981 15.2981C15.9076 14.6886 16.25 13.862 16.25 13C16.25 12.138 15.9076 11.3114 15.2981 10.7019C14.6886 10.0924 13.862 9.75 13 9.75Z" />
</svg>
