<svg viewBox="0 0 26 26" fill="currentColor"
    xmlns="http://www.w3.org/2000/svg">
    <path d="M20.5833 3.25H5.41667C4.21958 3.25 3.25 4.21958 3.25 5.41667V20.5833C3.25 21.7804 4.21958 22.75 5.41667 22.75H20.5833C21.7804 22.75 22.75 21.7804 22.75 20.5833V5.41667C22.75 4.21958 21.7804 3.25 20.5833 3.25ZM9.75 18.4167H7.01675V10.8333H9.75V18.4167ZM8.33517 9.44342C7.49992 9.44342 6.942 8.88658 6.942 8.14342C6.942 7.40025 7.49883 6.84342 8.42725 6.84342C9.2625 6.84342 9.82042 7.40025 9.82042 8.14342C9.82042 8.88658 9.26358 9.44342 8.33517 9.44342ZM19.5 18.4167H16.8545V14.2718C16.8545 13.1257 16.1493 12.8613 15.8849 12.8613C15.6206 12.8613 14.7387 13.0379 14.7387 14.2718C14.7387 14.4484 14.7387 18.4167 14.7387 18.4167H12.0055V10.8333H14.7387V11.8918C15.0908 11.2743 15.7961 10.8333 17.1188 10.8333C18.4416 10.8333 19.5 11.8918 19.5 14.2718V18.4167Z" />
</svg>
